<?xml version="1.0" encoding="UTF-8"?>
<svg xmlns="http://www.w3.org/2000/svg" xmlns:xlink="http://www.w3.org/1999/xlink" width="64pt" height="64pt" viewBox="0 0 64 64" version="1.1">
<g id="surface1518541">
<path style=" stroke:none;fill-rule:nonzero;fill:rgb(92.941176%,47.058824%,60%);fill-opacity:1;" d="M 61 59.378906 C 61 59.933594 60.550781 60.378906 60 60.378906 L 4 60.378906 C 3.449219 60.378906 3 59.933594 3 59.378906 L 3 51.378906 C 3.023438 47.804688 5.078125 44.554688 8.300781 43 L 22.371094 36.269531 C 24.921875 39.480469 28.28125 41.769531 32 41.769531 C 35.71875 41.769531 39.078125 39.480469 41.628906 36.269531 L 55.699219 43 C 58.929688 44.558594 60.988281 47.824219 61 51.410156 Z M 61 59.378906 "/>
<path style=" stroke:none;fill-rule:nonzero;fill:rgb(97.647059%,54.901961%,70.196078%);fill-opacity:1;" d="M 18.21875 41.058594 L 32 49 L 45.78125 41.058594 C 46.597656 40.652344 47.25 39.972656 47.628906 39.140625 L 41.628906 36.269531 C 39.078125 39.480469 35.71875 41.769531 32 41.769531 C 28.28125 41.769531 24.921875 39.480469 22.371094 36.269531 L 16.371094 39.140625 C 16.75 39.972656 17.402344 40.652344 18.21875 41.058594 Z M 18.21875 41.058594 "/>
<path style=" stroke:none;fill-rule:nonzero;fill:rgb(87.843137%,40.392157%,56.078431%);fill-opacity:1;" d="M 57 56 L 7 56 C 4.789062 56 3 57.789062 3 60 C 3 60.550781 3.449219 61 4 61 L 60 61 C 60.550781 61 61 60.550781 61 60 C 61 57.789062 59.210938 56 57 56 Z M 57 56 "/>
<path style=" stroke:none;fill-rule:nonzero;fill:rgb(98.039216%,93.72549%,87.058824%);fill-opacity:1;" d="M 19.070312 28.128906 C 18.761719 28.128906 17.761719 27.308594 17.238281 25.359375 C 16.71875 23.410156 17.191406 22.089844 17.429688 22.03125 C 17.429688 22.03125 19.328125 21.699219 19.351562 21.320312 C 19.375 20.773438 19.433594 20.230469 19.53125 19.691406 C 19.585938 19.113281 19.558594 18.53125 19.449219 17.960938 C 19.1875 16.160156 19.140625 14.332031 19.320312 12.519531 C 19.660156 9.140625 21.640625 7.128906 24.628906 7.128906 C 24.855469 7.128906 25.078125 7.054688 25.261719 6.921875 C 27.285156 5.664062 29.617188 5 32 5 L 33.058594 5 C 39.480469 5 44.058594 8.28125 46.011719 14.070312 C 45.28125 13.988281 45.519531 14.5 45.011719 15 C 44.5 15.5 43.230469 15.699219 43.710938 17 C 44.289062 18.367188 44.628906 19.828125 44.710938 21.308594 C 44.710938 21.691406 46.609375 21.019531 46.628906 21.019531 C 46.890625 21.109375 47.351562 23.390625 46.820312 25.351562 C 46.277344 26.832031 45.445312 28.191406 44.371094 29.351562 C 44.371094 29.351562 42.171875 33.238281 41.640625 34.109375 C 39.308594 37.941406 35.878906 40.910156 32.058594 40.910156 C 26.589844 40.910156 21.921875 34.851562 20.140625 28.859375 C 19.992188 28.402344 19.550781 28.101562 19.070312 28.128906 Z M 19.070312 28.128906 "/>
<path style=" stroke:none;fill-rule:nonzero;fill:rgb(59.607843%,56.078431%,50.980392%);fill-opacity:1;" d="M 19.351562 21.308594 C 19.351562 21.308594 18.511719 18.828125 19.519531 18.601562 C 22.457031 17.910156 24.835938 15.765625 25.828125 12.921875 C 29.28125 14.070312 28.179688 16.730469 42.371094 16.019531 C 42.96875 16.019531 44.371094 19.601562 45.058594 19.558594 C 45.230469 19.558594 49.78125 22.960938 44.308594 29.371094 C 43.03125 30.871094 41.558594 33.371094 41.75 35 C 42.109375 38.070312 47.5 39.148438 47.628906 39.140625 C 48.058594 39.140625 56.058594 35.691406 55.941406 35.441406 C 51.859375 26.949219 48.46875 16.148438 48.839844 15.800781 C 49.480469 15.191406 47.949219 13.339844 48.839844 13.441406 C 46.519531 6.328125 40.839844 2.070312 33 2.070312 L 31 1 C 24 1 16.550781 7.128906 16.128906 11.261719 C 15.828125 14.261719 10.808594 29.171875 11 30.621094 C 11 30.621094 8 33.371094 8.941406 36 C 13.28125 39.128906 20.191406 38.320312 23 36 C 23.578125 35.519531 19.25 29 17.558594 27.628906 C 16.640625 26.878906 16.851562 22.25 17.5 21.511719 C 18.871094 19.929688 19.351562 21.308594 19.351562 21.308594 Z M 19.351562 21.308594 "/>
<path style=" stroke:none;fill-rule:nonzero;fill:rgb(55.294118%,42.352941%,62.352941%);fill-opacity:1;" d="M 47 54 C 46.449219 54 46 54.449219 46 55 L 46 57 C 46 57.550781 46.449219 58 47 58 C 47.550781 58 48 57.550781 48 57 L 48 55 C 48 54.449219 47.550781 54 47 54 Z M 52 54 C 51.449219 54 51 54.449219 51 55 L 51 57 C 51 57.550781 51.449219 58 52 58 C 52.550781 58 53 57.550781 53 57 L 53 55 C 53 54.449219 52.550781 54 52 54 Z M 56 55 L 56 57 C 56 57.550781 56.449219 58 57 58 C 57.550781 58 58 57.550781 58 57 L 58 55 C 58 54.449219 57.550781 54 57 54 C 56.449219 54 56 54.449219 56 55 Z M 42 54 C 41.449219 54 41 54.449219 41 55 L 41 57 C 41 57.550781 41.449219 58 42 58 C 42.550781 58 43 57.550781 43 57 L 43 55 C 43 54.449219 42.550781 54 42 54 Z M 37 54 C 36.449219 54 36 54.449219 36 55 L 36 57 C 36 57.550781 36.449219 58 37 58 C 37.550781 58 38 57.550781 38 57 L 38 55 C 38 54.449219 37.550781 54 37 54 Z M 32 52 C 31.449219 52 31 52.449219 31 53 L 31 57 C 31 57.550781 31.449219 58 32 58 C 32.550781 58 33 57.550781 33 57 L 33 53 C 33 52.449219 32.550781 52 32 52 Z M 27 54 C 26.449219 54 26 54.449219 26 55 L 26 57 C 26 57.550781 26.449219 58 27 58 C 27.550781 58 28 57.550781 28 57 L 28 55 C 28 54.449219 27.550781 54 27 54 Z M 22 54 C 21.449219 54 21 54.449219 21 55 L 21 57 C 21 57.550781 21.449219 58 22 58 C 22.550781 58 23 57.550781 23 57 L 23 55 C 23 54.449219 22.550781 54 22 54 Z M 17 54 C 16.449219 54 16 54.449219 16 55 L 16 57 C 16 57.550781 16.449219 58 17 58 C 17.550781 58 18 57.550781 18 57 L 18 55 C 18 54.449219 17.550781 54 17 54 Z M 12 54 C 11.449219 54 11 54.449219 11 55 L 11 57 C 11 57.550781 11.449219 58 12 58 C 12.550781 58 13 57.550781 13 57 L 13 55 C 13 54.449219 12.550781 54 12 54 Z M 7 54 C 6.449219 54 6 54.449219 6 55 L 6 57 C 6 57.550781 6.449219 58 7 58 C 7.550781 58 8 57.550781 8 57 L 8 55 C 8 54.449219 7.550781 54 7 54 Z M 23.359375 16.828125 C 23.582031 16.976562 23.855469 17.027344 24.117188 16.972656 C 24.375 16.921875 24.605469 16.761719 24.75 16.539062 L 26.351562 14.109375 L 27.910156 14.871094 C 30.777344 16.265625 33.921875 16.996094 37.109375 17 L 39.660156 17 C 40.210938 17 40.660156 16.550781 40.660156 16 C 40.660156 15.449219 40.210938 15 39.660156 15 L 37.109375 15 C 34.226562 14.996094 31.382812 14.339844 28.789062 13.078125 L 27.230469 12.320312 C 26.324219 11.878906 25.234375 12.179688 24.679688 13.019531 L 23.078125 15.449219 C 22.777344 15.910156 22.902344 16.523438 23.359375 16.828125 Z M 23.359375 16.828125 "/>
<path style=" stroke:none;fill-rule:nonzero;fill:rgb(55.294118%,42.352941%,62.352941%);fill-opacity:1;" d="M 55.75 41.378906 L 50.808594 39 C 52.300781 38.582031 53.765625 38.085938 55.199219 37.511719 C 56.027344 37.171875 56.660156 36.476562 56.925781 35.621094 C 57.191406 34.769531 57.0625 33.839844 56.570312 33.089844 L 54.710938 30.238281 C 53.480469 28.363281 52.589844 26.277344 52.089844 24.089844 L 49.820312 14.199219 C 48.140625 6.820312 41.785156 1.4375 34.230469 1 C 33.21875 0.335938 32.03125 -0.0117188 30.820312 0 C 22.84375 -0.0351562 15.929688 5.507812 14.230469 13.300781 L 11.78125 24.300781 C 11.277344 26.542969 10.367188 28.671875 9.101562 30.589844 L 7.441406 33.109375 C 6.945312 33.859375 6.808594 34.789062 7.074219 35.644531 C 7.335938 36.503906 7.96875 37.199219 8.800781 37.539062 C 10.222656 38.105469 11.675781 38.589844 13.148438 39 L 8.25 41.378906 C 4.441406 43.21875 2.011719 47.070312 2 51.300781 L 2 59 C 2 60.65625 3.34375 62 5 62 L 59 62 C 60.65625 62 62 60.65625 62 59 L 62 51.300781 C 61.988281 47.070312 59.558594 43.21875 55.75 41.378906 Z M 9.570312 35.691406 C 9.292969 35.574219 9.085938 35.339844 9 35.050781 C 8.914062 34.765625 8.957031 34.457031 9.121094 34.210938 L 10.78125 31.691406 C 12.199219 29.558594 13.214844 27.1875 13.78125 24.691406 L 16.230469 13.691406 C 17.742188 6.847656 23.8125 1.984375 30.820312 2 C 31.710938 2.003906 32.578125 2.292969 33.289062 2.828125 C 33.453125 2.953125 33.648438 3.023438 33.851562 3.03125 C 40.601562 3.308594 46.332031 8.066406 47.851562 14.648438 L 50.121094 24.558594 C 50.671875 26.976562 51.644531 29.273438 53 31.351562 L 54.898438 34.199219 C 55.042969 34.441406 55.082031 34.730469 55 35 C 54.910156 35.285156 54.699219 35.519531 54.421875 35.628906 C 52.335938 36.449219 50.191406 37.117188 48.011719 37.628906 L 42.480469 35 C 43.539062 33.355469 44.386719 31.585938 45 29.730469 C 46.230469 29.269531 47.351562 27.730469 47.878906 25.730469 C 48.191406 24.644531 48.253906 23.503906 48.058594 22.390625 C 47.957031 21.355469 47.261719 20.472656 46.28125 20.128906 C 46.136719 20.089844 45.988281 20.066406 45.839844 20.058594 C 45.730469 19.257812 45.554688 18.46875 45.308594 17.699219 C 45.140625 17.171875 44.578125 16.882812 44.050781 17.050781 C 43.523438 17.21875 43.230469 17.78125 43.398438 18.308594 C 43.738281 19.320312 43.9375 20.367188 44 21.429688 C 44.019531 21.785156 44.226562 22.105469 44.542969 22.269531 C 44.859375 22.433594 45.238281 22.414062 45.539062 22.21875 C 45.621094 22.164062 45.710938 22.121094 45.808594 22.101562 C 45.859375 22.101562 46.050781 22.320312 46.148438 22.828125 C 46.28125 23.640625 46.230469 24.472656 46 25.261719 C 45.511719 27.101562 44.558594 27.878906 44.269531 27.878906 C 43.8125 27.859375 43.402344 28.152344 43.269531 28.589844 C 41.589844 34.261719 37.179688 40 32 40 C 26.820312 40 22.410156 34.261719 20.730469 28.601562 C 20.597656 28.164062 20.1875 27.871094 19.730469 27.890625 C 19.441406 27.890625 18.488281 27.109375 18 25.269531 C 17.773438 24.484375 17.722656 23.65625 17.851562 22.851562 C 17.949219 22.339844 18.140625 22.128906 18.179688 22.121094 C 18.277344 22.136719 18.371094 22.179688 18.449219 22.238281 C 18.753906 22.441406 19.140625 22.460938 19.464844 22.292969 C 19.785156 22.121094 19.992188 21.792969 20 21.429688 C 20.050781 20.390625 20.234375 19.363281 20.550781 18.371094 C 20.714844 17.84375 20.421875 17.28125 19.894531 17.113281 C 19.367188 16.949219 18.804688 17.242188 18.640625 17.769531 C 18.398438 18.535156 18.226562 19.316406 18.121094 20.109375 C 17.972656 20.117188 17.824219 20.140625 17.679688 20.179688 C 16.695312 20.523438 16.003906 21.402344 15.898438 22.441406 C 15.707031 23.550781 15.769531 24.695312 16.078125 25.78125 C 16.621094 27.78125 17.738281 29.28125 18.960938 29.78125 C 19.589844 31.621094 20.449219 33.375 21.519531 35 L 15.910156 37.679688 C 13.75 37.171875 11.632812 36.507812 9.570312 35.691406 Z M 60 59 C 60 59.550781 59.550781 60 59 60 L 5 60 C 4.449219 60 4 59.550781 4 59 L 4 51.300781 C 4 47.832031 5.992188 44.675781 9.121094 43.179688 L 22.699219 36.679688 C 25.160156 39.789062 28.398438 42 32 42 C 35.601562 42 38.839844 39.789062 41.300781 36.691406 L 54.878906 43.191406 C 58.003906 44.683594 59.996094 47.835938 60 51.300781 Z M 60 59 "/>
<path style=" stroke:none;fill-rule:nonzero;fill:rgb(55.294118%,42.352941%,62.352941%);fill-opacity:1;" d="M 21.488281 43.859375 L 31.488281 49.859375 C 31.800781 50.039062 32.179688 50.039062 32.488281 49.859375 L 42.488281 43.859375 C 42.851562 43.710938 43.09375 43.367188 43.109375 42.976562 C 43.125 42.585938 42.910156 42.222656 42.5625 42.042969 C 42.214844 41.867188 41.796875 41.910156 41.488281 42.148438 L 32 47.828125 L 22.511719 42.140625 C 22.203125 41.898438 21.785156 41.855469 21.4375 42.035156 C 21.089844 42.210938 20.875 42.574219 20.890625 42.964844 C 20.90625 43.355469 21.148438 43.703125 21.511719 43.851562 Z M 21.488281 43.859375 "/>
</g>
</svg>
